<svg width="41" height="41" viewBox="0 0 41 41" fill="none" xmlns="http://www.w3.org/2000/svg">
<circle cx="20.5" cy="20.5" r="20.5" fill="#EE43B4" fill-opacity="0.1"/>
<path fill-rule="evenodd" clip-rule="evenodd" d="M26.1762 21.4826C25.6529 22.389 25.584 23.0615 25.7557 23.9815C25.8934 24.6658 25.6849 25.3217 25.3202 25.9533C24.956 26.5842 24.4029 27.0635 23.7068 27.31C22.8266 27.579 21.845 27.5085 21.0251 27.1214C19.8353 26.5633 18.6536 25.9896 17.5039 25.3258C16.3534 24.6616 15.2475 23.9582 14.1882 23.1741C13.4423 22.6572 12.8904 21.8424 12.684 20.9459C12.5495 20.2199 12.6873 19.5009 13.0515 18.87C13.4162 18.2383 13.8807 17.7303 14.5414 17.5069C15.4405 17.2052 15.9727 16.8001 16.496 15.8938L16.6736 15.5863C17.3744 14.3724 18.1353 13.7535 19.2072 13.3363C20.7882 12.7382 22.666 12.9162 24.1356 13.7647L24.2002 13.802C25.7014 14.6687 26.8236 16.2664 27.0522 17.9742C27.2039 19.0764 27.036 19.9932 26.3537 21.1751L26.1762 21.4826ZM14.5303 25.5981C14.7401 25.2347 15.1698 25.2608 15.5193 25.3676C15.9241 25.4996 18.1225 26.7688 18.4393 27.0535C18.7066 27.3028 18.944 27.6618 18.7342 28.0252C18.5165 28.3608 18.1364 28.5504 17.7435 28.5833C17.2162 28.6568 16.6857 28.5899 16.2023 28.397C15.9371 28.2866 15.6942 28.1473 15.475 27.9771C15.0655 27.6544 14.7423 27.2285 14.5435 26.7348C14.3744 26.3784 14.3485 25.9544 14.5303 25.5981Z" fill="#EE43B4"/>
</svg>
