<svg width="57" height="31" viewBox="0 0 57 31" fill="none" xmlns="http://www.w3.org/2000/svg">
<path d="M27.8537 7.5244L32.378 3C34.9634 5.58537 40.7805 7.5244 43.3659 7.5244C46.5976 7.5244 53.061 2.35367 53.061 7.5244C53.061 11.661 54.3537 19.5895 55 23.0366M27.8537 7.5244C26.1084 7.13656 24.3049 6.87672 22.5 6.76582M27.8537 7.5244C27.4715 8.8496 26.9366 11.9 27.8537 13.5M2 23.0366H55M2 23.0366V27.8537C2 28.406 2.44771 28.8537 3 28.8537H54C54.5523 28.8537 55 28.406 55 27.8537V23.0366M2 23.0366C2 10.291 12.2733 6.13749 22.5 6.76582M22.5 6.76582C22.1667 8.51055 21.7 12.5 22.5 14.5" stroke="#7733FE" stroke-width="3.5"/>
</svg>
