<svg width="19" height="19" viewBox="0 0 19 19" fill="none" xmlns="http://www.w3.org/2000/svg">
<path fill-rule="evenodd" clip-rule="evenodd" d="M2.9725 0.75H5.93C7.16375 0.75 8.1525 1.75625 8.1525 2.99088V5.97375C8.1525 7.21625 7.16375 8.21375 5.93 8.21375H2.9725C1.7475 8.21375 0.75 7.21625 0.75 5.97375V2.99088C0.75 1.75625 1.7475 0.75 2.9725 0.75ZM2.9725 10.786H5.93C7.16375 10.786 8.1525 11.7844 8.1525 13.0269V16.0097C8.1525 17.2435 7.16375 18.2497 5.93 18.2497H2.9725C1.7475 18.2497 0.75 17.2435 0.75 16.0097V13.0269C0.75 11.7844 1.7475 10.786 2.9725 10.786ZM16.0276 0.75H13.0701C11.8363 0.75 10.8476 1.75625 10.8476 2.99088V5.97375C10.8476 7.21625 11.8363 8.21375 13.0701 8.21375H16.0276C17.2526 8.21375 18.2501 7.21625 18.2501 5.97375V2.99088C18.2501 1.75625 17.2526 0.75 16.0276 0.75ZM13.0701 10.786H16.0276C17.2526 10.786 18.2501 11.7844 18.2501 13.0269V16.0097C18.2501 17.2435 17.2526 18.2497 16.0276 18.2497H13.0701C11.8363 18.2497 10.8476 17.2435 10.8476 16.0097V13.0269C10.8476 11.7844 11.8363 10.786 13.0701 10.786Z" fill="#7733FE"/>
</svg>
