<svg width="40" height="55" viewBox="0 0 40 55" fill="none" xmlns="http://www.w3.org/2000/svg">
<path d="M20.0374 53H11.0187M20.0374 53V42.5M20.0374 53H29.0561M11.0187 53H4.00001C2.89544 53 1.99488 52.101 2.04639 50.9977C2.5866 39.4266 7.6987 32.4733 9.69685 27.2992C11.8077 21.8333 11.7025 12.5487 10.567 8.75984L9.6977 4.50509C9.47578 3.41893 10.1797 2.35949 11.267 2.14318L12.5063 1.89663C13.6021 1.67863 14.6613 2.40784 14.8952 3.50036C17.3937 15.1705 21.7737 18.7074 25.1016 3.44483C25.3349 2.37489 26.3668 1.65614 27.4445 1.85028L29.0628 2.1418C30.231 2.35223 30.9599 3.52784 30.629 4.66774L29.4409 8.75984C28.6201 11.5804 26.8462 21.6154 29.9095 27.2992C32.6036 32.298 37.529 39.0806 38.0329 50.9969C38.0796 52.1005 37.1794 53 36.0748 53H29.0561M11.0187 53L12 42.5M29.0561 53L27.7179 42.5" stroke="#7733FE" stroke-width="3.5"/>
</svg>
