<svg width="41" height="41" viewBox="0 0 41 41" fill="none" xmlns="http://www.w3.org/2000/svg">
<circle cx="20.5" cy="20.5" r="20.5" fill="#EE43B4" fill-opacity="0.1"/>
<path fill-rule="evenodd" clip-rule="evenodd" d="M23.6578 13.5306C24.1752 13.5306 24.6918 13.6036 25.183 13.7684C28.2096 14.7524 29.3002 18.0734 28.3892 20.9762C27.8726 22.4596 27.028 23.8134 25.9218 24.9196C24.3384 26.453 22.6008 27.8142 20.7304 28.9868L20.5254 29.1106L20.3122 28.9786C18.4352 27.8142 16.6878 26.453 15.0896 24.9114C13.9908 23.8052 13.1454 22.4596 12.6206 20.9762C11.694 18.0734 12.7846 14.7524 15.844 13.7512C16.0818 13.6692 16.327 13.6118 16.573 13.5798H16.6714C16.9018 13.5462 17.1306 13.5306 17.3602 13.5306H17.4504C17.967 13.5462 18.4672 13.6364 18.9518 13.8012H19.0002C19.033 13.8168 19.0576 13.834 19.074 13.8496C19.2552 13.9078 19.4266 13.9734 19.5906 14.0636L19.9022 14.203C19.9775 14.2431 20.062 14.3045 20.135 14.3575C20.1813 14.3911 20.223 14.4214 20.2548 14.4408C20.2682 14.4487 20.2818 14.4566 20.2955 14.4646C20.3658 14.5057 20.439 14.5484 20.5008 14.5958C21.4118 13.8996 22.518 13.5224 23.6578 13.5306ZM25.839 19.4346C26.1752 19.4256 26.4622 19.1558 26.4868 18.8106V18.713C26.5114 17.5642 25.8152 16.5236 24.7566 16.1218C24.4204 16.0062 24.0514 16.1874 23.9284 16.5318C23.8136 16.8762 23.994 17.2534 24.3384 17.3756C24.864 17.5724 25.2158 18.0898 25.2158 18.663V18.6884C25.2002 18.8762 25.2568 19.0574 25.3716 19.1968C25.4864 19.3362 25.6586 19.4174 25.839 19.4346Z" fill="#EE43B4"/>
</svg>
