<svg width="24" height="24" viewBox="0 0 20 20" fill="none" xmlns="http://www.w3.org/2000/svg">
<path fill-rule="evenodd" clip-rule="evenodd" d="M13.85 0.500699C14.481 0.500699 15.111 0.589699 15.71 0.790699C19.401 1.9907 20.731 6.0407 19.62 9.5807C18.99 11.3897 17.96 13.0407 16.611 14.3897C14.68 16.2597 12.561 17.9197 10.28 19.3497L10.03 19.5007L9.77002 19.3397C7.48102 17.9197 5.35002 16.2597 3.40102 14.3797C2.06102 13.0307 1.03002 11.3897 0.390017 9.5807C-0.739983 6.0407 0.590017 1.9907 4.32102 0.769699C4.61102 0.669699 4.91002 0.599699 5.21002 0.560699H5.33002C5.61102 0.519699 5.89002 0.500699 6.17002 0.500699H6.28002C6.91002 0.519699 7.52002 0.629699 8.11102 0.830699H8.17002C8.21002 0.849699 8.24002 0.870699 8.26002 0.889699C8.48102 0.960699 8.69002 1.0407 8.89002 1.1507L9.27002 1.3207C9.36184 1.36967 9.4649 1.4445 9.55398 1.50917C9.61041 1.55014 9.66123 1.58704 9.70002 1.6107C9.71634 1.62033 9.73292 1.63001 9.74964 1.63977C9.83538 1.68982 9.9247 1.74196 10 1.7997C11.111 0.950699 12.46 0.490699 13.85 0.500699ZM16.51 7.7007C16.92 7.6897 17.27 7.3607 17.3 6.9397V6.8207C17.33 5.4197 16.481 4.1507 15.19 3.6607C14.78 3.5197 14.33 3.7407 14.18 4.1607C14.04 4.5807 14.26 5.0407 14.68 5.1897C15.321 5.4297 15.75 6.0607 15.75 6.7597V6.7907C15.731 7.0197 15.8 7.2407 15.94 7.4107C16.08 7.5807 16.29 7.6797 16.51 7.7007Z" fill="#EE43B4"/>
</svg>
