<svg width="36" height="36" viewBox="0 0 36 36" fill="none" xmlns="http://www.w3.org/2000/svg">
<circle cx="18.0002" cy="18" r="17.8947" fill="#EE43B4" fill-opacity="0.15"/>
<path d="M18.2564 14.5327C16.138 14.5327 14.4498 16.254 14.4498 18.3393C14.4498 20.4578 16.138 22.1459 18.2564 22.1459C20.3418 22.1459 22.0631 20.4578 22.0631 18.3393C22.0631 16.254 20.3418 14.5327 18.2564 14.5327ZM18.2564 20.8219C16.8993 20.8219 15.7739 19.7296 15.7739 18.3393C15.7739 16.9822 16.8662 15.8898 18.2564 15.8898C19.6136 15.8898 20.7059 16.9822 20.7059 18.3393C20.7059 19.7296 19.6136 20.8219 18.2564 20.8219ZM23.0892 14.4003C23.0892 13.9038 22.692 13.5066 22.1955 13.5066C21.699 13.5066 21.3017 13.9038 21.3017 14.4003C21.3017 14.8968 21.699 15.294 22.1955 15.294C22.692 15.294 23.0892 14.8968 23.0892 14.4003ZM25.6049 15.294C25.5387 14.1024 25.2739 13.0431 24.4132 12.1825C23.5526 11.3219 22.4934 11.0571 21.3017 10.9909C20.077 10.9247 16.4028 10.9247 15.178 10.9909C13.9864 11.0571 12.9603 11.3219 12.0665 12.1825C11.2059 13.0431 10.9411 14.1024 10.8749 15.294C10.8087 16.5188 10.8087 20.193 10.8749 21.4177C10.9411 22.6094 11.2059 23.6355 12.0665 24.5292C12.9603 25.3899 13.9864 25.6547 15.178 25.7209C16.4028 25.7871 20.077 25.7871 21.3017 25.7209C22.4934 25.6547 23.5526 25.3899 24.4132 24.5292C25.2739 23.6355 25.5387 22.6094 25.6049 21.4177C25.6711 20.193 25.6711 16.5188 25.6049 15.294ZM24.016 22.7087C23.7843 23.3707 23.2547 23.8672 22.6258 24.132C21.6328 24.5292 19.3157 24.4299 18.2564 24.4299C17.1641 24.4299 14.847 24.5292 13.8871 24.132C13.2251 23.8672 12.7286 23.3707 12.4638 22.7087C12.0665 21.7487 12.1658 19.4317 12.1658 18.3393C12.1658 17.2801 12.0665 14.963 12.4638 13.97C12.7286 13.3411 13.2251 12.8445 13.8871 12.5797C14.847 12.1825 17.1641 12.2818 18.2564 12.2818C19.3157 12.2818 21.6328 12.1825 22.6258 12.5797C23.2547 12.8114 23.7512 13.3411 24.016 13.97C24.4132 14.963 24.3139 17.2801 24.3139 18.3393C24.3139 19.4317 24.4132 21.7487 24.016 22.7087Z" fill="white"/>
</svg>
