<svg width="16" height="16" viewBox="0 0 16 16" fill="none" xmlns="http://www.w3.org/2000/svg">
<path d="M8.41465 3.83796C6.29618 3.83796 4.60802 5.55922 4.60802 7.64459C4.60802 9.76306 6.29618 11.4512 8.41465 11.4512C10.5 11.4512 12.2213 9.76306 12.2213 7.64459C12.2213 5.55922 10.5 3.83796 8.41465 3.83796ZM8.41465 10.1272C7.0575 10.1272 5.93206 9.03484 5.93206 7.64459C5.93206 6.28744 7.0244 5.19511 8.41465 5.19511C9.77179 5.19511 10.8641 6.28744 10.8641 7.64459C10.8641 9.03484 9.77179 10.1272 8.41465 10.1272ZM13.2474 3.70556C13.2474 3.20904 12.8502 2.81183 12.3537 2.81183C11.8572 2.81183 11.4599 3.20904 11.4599 3.70556C11.4599 4.20208 11.8572 4.59929 12.3537 4.59929C12.8502 4.59929 13.2474 4.20208 13.2474 3.70556ZM15.7631 4.59929C15.6969 3.40765 15.4321 2.34841 14.5714 1.48779C13.7108 0.627157 12.6516 0.362348 11.4599 0.296146C10.2352 0.229944 6.56098 0.229944 5.33624 0.296146C4.1446 0.362348 3.11847 0.627157 2.22474 1.48779C1.36411 2.34841 1.0993 3.40765 1.0331 4.59929C0.966899 5.82403 0.966899 9.49825 1.0331 10.723C1.0993 11.9146 1.36411 12.9408 2.22474 13.8345C3.11847 14.6951 4.1446 14.9599 5.33624 15.0261C6.56098 15.0923 10.2352 15.0923 11.4599 15.0261C12.6516 14.9599 13.7108 14.6951 14.5714 13.8345C15.4321 12.9408 15.6969 11.9146 15.7631 10.723C15.8293 9.49825 15.8293 5.82403 15.7631 4.59929ZM14.1742 12.0139C13.9425 12.676 13.4129 13.1725 12.784 13.4373C11.791 13.8345 9.47388 13.7352 8.41465 13.7352C7.32231 13.7352 5.00523 13.8345 4.0453 13.4373C3.38328 13.1725 2.88676 12.676 2.62195 12.0139C2.22474 11.054 2.32404 8.73693 2.32404 7.64459C2.32404 6.58535 2.22474 4.26828 2.62195 3.27524C2.88676 2.64632 3.38328 2.14981 4.0453 1.885C5.00523 1.48779 7.32231 1.58709 8.41465 1.58709C9.47388 1.58709 11.791 1.48779 12.784 1.885C13.4129 2.11671 13.9094 2.64632 14.1742 3.27524C14.5714 4.26828 14.4721 6.58535 14.4721 7.64459C14.4721 8.73693 14.5714 11.054 14.1742 12.0139Z" fill="white"/>
</svg>
