<svg width="55" height="53" viewBox="0 0 55 53" fill="none" xmlns="http://www.w3.org/2000/svg">
<path d="M3.28552 12.2807L13.2757 3.21933C15.2625 1.41726 18.3113 1.50161 20.372 3.21858C22.6828 5.14388 25.5897 7.21279 27.375 7.17687C29.6172 7.13175 32.1894 5.41439 34.2327 3.67114C36.3987 1.82318 39.677 1.58912 41.7859 3.50197L51.4645 12.2807C52.6438 13.3504 52.5431 15.2334 51.2564 16.1712L42.474 22.5724C41.8253 23.0452 41.4417 23.7996 41.4417 24.6023V45.2143C41.4417 47.9889 39.1924 50.2381 36.4179 50.2381H18.3321C15.5576 50.2381 13.3083 47.9889 13.3083 45.2143V24.6023C13.3083 23.7996 12.9247 23.0452 12.276 22.5724L3.49356 16.1712C2.20688 15.2334 2.10619 13.3504 3.28552 12.2807Z" stroke="#7733FE" stroke-width="3.76786"/>
</svg>
