<svg width="69" height="54" viewBox="0 0 69 54" fill="none" xmlns="http://www.w3.org/2000/svg">
<path d="M16.3728 8.91576L22.4399 3.41272C24.2375 1.78228 26.9959 1.8586 28.8604 3.41205C30.9512 5.15399 33.5812 7.02586 35.1964 6.99336C37.2251 6.95254 39.5523 5.39874 41.401 3.82151C43.3607 2.14955 46.3268 1.93777 48.2349 3.66844L53.3164 8.27751C57.0974 11.707 60.0645 15.9378 62.0009 20.6608L66.3178 31.1898C68.3626 36.1772 61.5653 39.9438 58.4205 35.5658L57.9286 34.881L52.0111 27.0281C50.6983 25.2859 47.9234 26.2144 47.9234 28.3958V47.1971C47.9234 49.7074 45.8884 51.7424 43.3781 51.7424H27.0148C24.5045 51.7424 22.4694 49.7074 22.4694 47.1971V27.6775C22.4694 25.5759 19.8618 24.6002 18.4823 26.1856L17.2143 27.6429L10.6274 35.9481C7.26869 40.183 0.645153 36.0641 2.9579 31.1787L8.42218 19.6361C10.3442 15.5761 13.0456 11.9336 16.3728 8.91576Z" stroke="#7733FE" stroke-width="3.40901"/>
</svg>
