<svg width="20" height="20" viewBox="0 0 20 20" fill="none" xmlns="http://www.w3.org/2000/svg">
<path fill-rule="evenodd" clip-rule="evenodd" d="M11.3648 6.15766L10.9392 8.51324H13.3329H15.1459C15.6801 8.51324 16.3463 8.81032 16.9558 9.6569C17.5631 10.5005 18.0009 11.7668 18.0009 13.2566C18.0009 14.7465 17.5631 16.0128 16.9558 16.8564C16.3463 17.7029 15.6801 18 15.1459 18H6.66666V18V8.51318V8.0874L7.00314 7.29474L8.92083 2.77717C9.07994 2.51824 9.42171 2.23755 9.94369 2.08933C10.505 1.92995 11.0023 2.00283 11.2833 2.15436C11.6305 2.34157 11.7795 2.49346 11.8399 2.56974C11.892 2.63552 11.9125 2.68673 11.9255 2.75299C11.9423 2.83814 11.9511 2.97979 11.9228 3.21871C11.8932 3.46793 11.836 3.73438 11.7542 4.10463L11.7511 4.1186C11.709 4.30935 11.6592 4.53438 11.6173 4.75998L11.6173 4.75997L11.6156 4.76963L11.3648 6.15766ZM4.44531 20H1C0.447716 20 0 19.5522 0 19V7.51318C0 6.96089 0.447715 6.51318 1 6.51318H4.66666H5.16218L7.12191 1.89655C8.02913 0.175127 10.579 -0.497592 12.2325 0.393972C14.3565 1.53926 14.0234 3.10483 13.7122 4.51324L13.7071 4.53624C13.6629 4.73636 13.6193 4.93324 13.5837 5.12521L13.3329 6.51324H15.1459C15.219 6.51324 15.2918 6.51549 15.3641 6.51993C17.9441 6.67841 20.0009 9.63391 20.0009 13.2566C20.0009 16.9809 17.8272 20 15.1459 20H6.44531H4.44531V20ZM4.44531 8.51318V8.51324V18H2V8.51318H4.44531Z" fill="#878A97"/>
</svg>
