<svg width="135" height="50" viewBox="0 0 135 50" fill="none" xmlns="http://www.w3.org/2000/svg">
<path d="M1.21752 8.39745C0.405814 10.3081 1.55573 13.6668 2.23216 15.1073C0.77105 16.2901 0.135258 19.846 0 21.476C0 27.4808 2.23216 35.9194 7.40683 42.0606C9.23318 44.2281 12.9873 44.0793 15.7268 43.3116C17.9996 42.6747 22.9307 41.4283 26.5834 43.3116C30.642 45.4042 37.9473 45.1312 42.4117 45.1312C47.7893 45.1312 50.7317 41.7444 53.4712 40.6959C56.7992 39.4221 64.6322 39.0753 70.5171 39.8998C75.712 40.6277 85.7366 41.9469 94.1581 40.6959L129.569 38.6488L130.685 35.3507C135.149 27.1624 134.439 16.1309 133.83 12.9465C133.222 9.76216 129.062 3.96208 126.221 1.68755C123.38 -0.586993 116.582 -0.0183582 115.364 0.322823C114.146 0.664003 106.942 2.02873 104.609 2.25618C102.275 2.48363 93.042 2.2562 82.0839 1.0052C71.1259 -0.245805 38.0488 3.05228 34.4976 3.50719C30.9464 3.9621 28.8156 3.16602 26.6849 2.2562C24.5542 1.34638 18.7707 0.550296 12.48 1.57384C6.18927 2.59738 2.23216 6.00919 1.21752 8.39745Z" fill="white"/>
<path d="M5.16427 10.712C4.39913 12.3188 5.48307 15.1434 6.12068 16.3548C4.74341 17.3495 4.1441 20.3399 4.0166 21.7108C4.0166 26.7607 6.12068 33.8573 10.9985 39.0219C12.72 40.8447 16.2588 40.7196 18.8411 40.074C20.9835 39.5384 25.6316 38.4902 29.0748 40.074C32.9004 41.8338 39.7866 41.6043 43.9949 41.6043C49.0639 41.6043 51.8375 38.756 54.4198 37.8742C57.5569 36.803 64.9404 36.5113 70.4876 37.2047C75.3845 37.8168 84.8339 38.9263 92.7722 37.8742L126.151 36.1527L127.203 33.3791C131.411 26.4929 130.742 17.2156 130.168 14.5376C129.594 11.8597 125.673 6.98193 122.995 5.06909C120.317 3.15625 113.909 3.63446 112.761 3.92139C111.614 4.20831 104.823 5.35602 102.623 5.5473C100.424 5.73858 91.7201 5.54732 81.3908 4.49525C71.0615 3.44319 39.8823 6.2168 36.5348 6.59937C33.1873 6.98194 31.1789 6.31245 29.1704 5.54732C27.1619 4.78218 21.7103 4.11269 15.7805 4.97346C9.85075 5.83424 6.12068 8.70349 5.16427 10.712Z" stroke="#005B8E" stroke-width="1.91284"/>
<path d="M12.5293 30.7968V12.8162H27.5009C27.6573 12.8162 27.8141 12.8325 27.9622 12.8826C30.879 13.8693 32.4185 19.4654 28.5015 21.4239V21.8065C31.6912 22.4632 33.0404 28.7333 28.0359 30.6877C27.8412 30.7637 27.6297 30.7968 27.4207 30.7968H27.0669H12.5293Z" fill="#FF181A"/>
<path d="M20.2754 19.8938V16.0681H22.2839C23.8141 16.642 23.8141 19.1286 22.2839 19.8938H20.2754Z" fill="white"/>
<path d="M20.2754 26.9714V23.1458H22.2839C23.8141 23.7196 23.8141 26.2063 22.2839 26.9714H20.2754Z" fill="white"/>
<path d="M54.3242 30.7968V12.8162H60.0627L64.5579 18.6503V12.8162H72.3049V30.7968H72.1136H65.9925L61.9756 25.0583V30.7968H54.3242Z" fill="#FF181A"/>
<path d="M76.1309 30.7968V12.8162H83.7822V30.7968H76.1309Z" fill="#FF8500"/>
<path d="M86.2686 20.5632V12.8162H101.763V20.5632H97.9369V30.7968H90.1899V20.5632H86.2686Z" fill="#1F2B62"/>
<circle cx="42.273" cy="21.8063" r="9.75546" fill="#00B140"/>
<circle cx="42.2738" cy="21.6152" r="2.48669" fill="white"/>
<circle cx="112.858" cy="21.8063" r="9.75546" fill="#A9133A"/>
<circle cx="112.858" cy="21.6152" r="2.48669" fill="white"/>
<path d="M97.6572 34.0084C96.8307 33.515 95.9136 37.1752 91.1486 38.9877C89.8987 39.4631 88.9224 38.9344 88.7809 40.079C88.4794 42.5172 90.4688 47.2839 91.1484 48.5151C92.3054 50.4888 96.2111 50.2913 97.6572 49.1071C98.2356 48.6334 100.68 48.5151 101.687 48.7124C104.91 49.344 107.713 49.9953 109.952 48.7124C110.778 48.2387 111.811 48.524 112.534 48.7124C114.807 49.3045 118.423 49.2058 119.973 48.1203C120.821 47.526 122.005 47.8242 122.556 48.1203C125.449 49.1466 128.961 47.6268 130.201 45.9492C132.04 43.4604 131.079 36.9689 130.201 35.2913C129.126 33.2386 126.172 33.5995 124.622 34.3044C122.886 35.0939 120.49 34.6257 119.043 34.3044C115.489 33.5149 106.542 33.6171 102.513 34.3044C100.199 34.6991 98.6905 34.6253 97.6572 34.0084Z" fill="white"/>
<path d="M90.1893 35.9609C89.424 40.3222 91.0819 44.9194 92.0065 46.6728C93.0775 48.5857 96.6933 48.3943 98.032 47.2466C98.5675 46.7875 100.83 46.6728 101.762 46.864C104.746 47.4761 107.341 48.1074 109.413 46.864C110.179 46.4049 111.135 46.6814 111.805 46.864C113.909 47.4379 117.256 47.3422 118.691 46.2902C119.476 45.7143 120.572 46.0032 121.082 46.2902C123.76 47.2848 127.012 45.812 128.159 44.186C129.862 41.774 128.972 35.4826 128.159 33.8567C127.165 31.8674 124.429 32.2172 122.995 32.9003C121.388 33.6654 119.169 33.2117 117.83 32.9003C114.54 32.1352 106.257 32.2342 102.527 32.9003C100.385 33.2829 98.9885 33.2113 98.032 32.6134C97.2668 32.1352 91.062 30.9875 90.1893 35.9609Z" fill="#005B8E"/>
<path d="M103.676 44.951V35.9607H106.928V44.951H103.676Z" fill="white"/>
<path d="M93.5371 45.1423V35.9607H96.6933V39.0212C98.4148 38.4473 98.893 37.6822 99.18 36.0563H102.432C102.432 37.204 102.049 39.6907 100.519 40.5515C102.049 41.2401 102.432 43.3251 102.432 45.1423H99.18C99.0269 43.9946 98.6061 42.4643 96.6933 41.8905V45.1423H93.5371Z" fill="white"/>
<path d="M108.84 44.951V35.9607H112.761C117.83 35.9607 117.83 44.951 112.761 44.951H108.84Z" fill="white"/>
<path d="M111.711 41.5073V38.8293H112.285C113.815 38.8293 113.815 41.5073 112.285 41.5073H111.711Z" fill="#005B8E"/>
<path d="M124.143 35.6738V37.8735H122.613C121.656 36.0564 119.839 38.1468 121.752 38.6387C125.099 39.4995 126.63 45.5249 117.257 44.3772V41.508H118.5C118.5 42.1201 119.17 42.7034 119.743 42.4644C120.661 42.0818 120.58 41.4123 119.743 41.1254C117.065 40.2072 116.434 37.1084 118.5 35.9607C119.361 35.4825 121.943 35.1 124.143 35.6738Z" fill="white"/>
</svg>
