<svg width="20" height="21" viewBox="0 0 20 21" fill="none" xmlns="http://www.w3.org/2000/svg">
<path d="M15.4974 20.0616C14.4154 20.0741 13.3898 19.5797 12.7257 18.7253C12.0615 17.871 11.8354 16.7551 12.1144 15.7096L5.85441 12.1316C4.77269 13.1226 3.18709 13.3324 1.88489 12.6567C0.582698 11.981 -0.15872 10.5638 0.0287733 9.10881C0.216267 7.65378 1.29274 6.47084 2.72368 6.14735C4.15463 5.82386 5.63526 6.42872 6.43041 7.66161L12.1134 4.4126C12.0399 4.13479 12.0009 3.84896 11.9974 3.5616C11.9831 1.88832 13.1452 0.434747 14.7806 0.0804273C16.416 -0.273893 18.0755 0.568349 18.755 2.09752C19.4345 3.62669 18.9474 5.42283 17.5884 6.39911C16.2293 7.37539 14.3717 7.26369 13.1394 6.13161L6.98841 9.64661C6.98232 9.90593 6.94607 10.1637 6.88041 10.4146L13.1394 13.9916C14.2917 12.9342 16.0062 12.7709 17.3373 13.5919C18.6684 14.4129 19.292 16.0183 18.8642 17.5226C18.4364 19.0269 17.0613 20.0639 15.4974 20.0616ZM15.4974 15.0616C14.669 15.0616 13.9974 15.7332 13.9974 16.5616C13.9974 17.39 14.669 18.0616 15.4974 18.0616C16.3258 18.0616 16.9974 17.39 16.9974 16.5616C16.9974 15.7332 16.3258 15.0616 15.4974 15.0616ZM3.49741 8.06161C2.66898 8.06161 1.99741 8.73318 1.99741 9.56161C1.99741 10.39 2.66898 11.0616 3.49741 11.0616C4.32583 11.0616 4.99741 10.39 4.99741 9.56161C4.99741 8.73318 4.32583 8.06161 3.49741 8.06161ZM15.4974 2.0616C14.669 2.0616 13.9974 2.73318 13.9974 3.5616C13.9974 4.39003 14.669 5.0616 15.4974 5.0616C16.3258 5.0616 16.9974 4.39003 16.9974 3.5616C16.9974 2.73318 16.3258 2.0616 15.4974 2.0616Z" fill="#878A97"/>
</svg>
