<svg width="55" height="53" viewBox="0 0 55 53" fill="none" xmlns="http://www.w3.org/2000/svg">
<path d="M3.53552 12.6616L13.5257 3.60025C15.5125 1.79818 18.5613 1.88253 20.622 3.5995C22.9328 5.5248 25.8397 7.59372 27.625 7.55779C29.8672 7.51267 32.4394 5.79531 34.4827 4.05206C36.6487 2.20411 39.927 1.97004 42.0359 3.88289L51.7145 12.6616C52.8938 13.7313 52.7931 15.6143 51.5064 16.5521L42.724 22.9533C42.0753 23.4261 41.6917 24.1805 41.6917 24.9832V45.5952C41.6917 48.3698 39.4424 50.619 36.6679 50.619H18.5821C15.8076 50.619 13.5583 48.3698 13.5583 45.5952V24.9832C13.5583 24.1805 13.1747 23.4261 12.526 22.9533L3.74356 16.5521C2.45688 15.6143 2.35619 13.7313 3.53552 12.6616Z" stroke="#7733FE" stroke-width="3.76786"/>
</svg>
