<svg width="36" height="36" viewBox="0 0 36 36" fill="none" xmlns="http://www.w3.org/2000/svg">
<circle cx="18.1057" cy="18" r="17.8947" fill="#EE43B4" fill-opacity="0.15"/>
<path fill-rule="evenodd" clip-rule="evenodd" d="M9.27151 17.005C13.9086 14.9847 17.0006 13.6528 18.5478 13.0093C22.9652 11.1719 23.8831 10.8528 24.4813 10.8422C24.6129 10.8399 24.9071 10.8725 25.0977 11.0271C25.2586 11.1577 25.3029 11.3341 25.3241 11.4579C25.3453 11.5817 25.3717 11.8637 25.3507 12.0841C25.1113 14.5993 24.0755 20.703 23.5486 23.52C23.3256 24.712 22.8866 25.1117 22.4615 25.1508C21.5378 25.2358 20.8364 24.5403 19.9417 23.9539C18.5417 23.0362 17.7508 22.4649 16.3919 21.5694C14.8215 20.5345 15.8395 19.9657 16.7345 19.0361C16.9687 18.7928 21.0387 15.0909 21.1174 14.7551C21.1273 14.7131 21.1364 14.5565 21.0434 14.4739C20.9504 14.3912 20.8131 14.4195 20.7141 14.442C20.5737 14.4738 18.3372 15.9521 14.0047 18.8766C13.3698 19.3126 12.7949 19.5249 12.2797 19.5138C11.7117 19.5015 10.6192 19.1927 9.80708 18.9287C8.81094 18.6049 8.01923 18.4337 8.08817 17.8838C8.12408 17.5973 8.51852 17.3044 9.27151 17.005Z" fill="white"/>
</svg>
