<svg width="18" height="15" viewBox="0 0 18 15" fill="none" xmlns="http://www.w3.org/2000/svg">
<path fill-rule="evenodd" clip-rule="evenodd" d="M1.18752 6.16285C5.82457 4.14257 8.91667 2.81067 10.4638 2.16716C14.8812 0.329818 15.7991 0.0106514 16.3974 0.00011237C16.5289 -0.00220558 16.8231 0.0304048 17.0137 0.185046C17.1746 0.315622 17.2189 0.492012 17.2401 0.615812C17.2613 0.739612 17.2877 1.02163 17.2667 1.242C17.0273 3.75718 15.9915 9.86087 15.4646 12.6779C15.2416 13.8699 14.8026 14.2696 14.3775 14.3087C13.4538 14.3937 12.7524 13.6982 11.8577 13.1118C10.4577 12.1941 9.66685 11.6228 8.30793 10.7273C6.73747 9.69239 7.75554 9.12358 8.65054 8.19399C8.88476 7.95072 12.9547 4.24881 13.0335 3.91299C13.0433 3.87099 13.0524 3.71444 12.9594 3.63177C12.8664 3.5491 12.7292 3.57737 12.6301 3.59985C12.4897 3.63172 10.2532 5.10995 5.92068 8.03454C5.28586 8.47045 4.71087 8.68284 4.19569 8.67171C3.62775 8.65944 2.53526 8.35059 1.7231 8.08659C0.726958 7.76278 -0.0647556 7.59158 0.00418488 7.04166C0.0400933 6.75523 0.43454 6.46229 1.18752 6.16285Z" fill="white"/>
</svg>
